<svg width="336" height="72" viewBox="0 0 336 72" fill="none" xmlns="http://www.w3.org/2000/svg">
<path d="M3.51393 42.0513V45.2428H11.6722V47H1.46988V35.3812H11.6543V37.1384H3.51393V40.3658H10.184V42.0513H3.51393ZM22.0723 43.145H24.0626C24.1104 43.5873 24.2837 43.9877 24.5825 44.3463C24.8933 44.693 25.2997 44.9679 25.8018 45.1711C26.3158 45.3624 26.9015 45.458 27.559 45.458C28.1447 45.458 28.6288 45.3863 29.0113 45.2428C29.3938 45.0994 29.6747 44.9022 29.854 44.6511C30.0453 44.3882 30.1409 44.0833 30.1409 43.7367C30.1409 43.39 30.0273 43.1211 29.8002 42.9298C29.5851 42.7266 29.2504 42.5593 28.7961 42.4278C28.3419 42.2843 27.7622 42.1469 27.0569 42.0154C26.4712 41.9078 25.9034 41.7644 25.3535 41.5851C24.8037 41.4058 24.3076 41.1786 23.8653 40.9037C23.435 40.6288 23.0943 40.2941 22.8433 39.8996C22.5923 39.4932 22.4668 39.0151 22.4668 38.4652C22.4668 37.8436 22.6401 37.2818 22.9867 36.7798C23.3453 36.2777 23.8713 35.8832 24.5646 35.5964C25.2579 35.3095 26.1006 35.166 27.0928 35.166C28.6109 35.166 29.7703 35.5187 30.5712 36.2239C31.3721 36.9172 31.7606 37.8615 31.7367 39.0569H29.7823C29.7464 38.3038 29.4715 37.7599 28.9575 37.4252C28.4435 37.0905 27.792 36.9232 27.0031 36.9232C26.2979 36.9232 25.7062 37.0487 25.228 37.2997C24.7499 37.5508 24.5108 37.9572 24.5108 38.519C24.5108 38.7581 24.5646 38.9672 24.6722 39.1466C24.7917 39.3139 24.983 39.4693 25.2459 39.6127C25.5089 39.7442 25.8675 39.8757 26.3218 40.0072C26.788 40.1267 27.3557 40.2582 28.0251 40.4017C28.5989 40.4973 29.1368 40.6288 29.6389 40.7961C30.1409 40.9635 30.5772 41.1727 30.9478 41.4237C31.3303 41.6747 31.6291 41.9975 31.8443 42.3919C32.0594 42.7864 32.167 43.2705 32.167 43.8443C32.167 44.5017 31.9997 45.0874 31.665 45.6014C31.3303 46.1035 30.8163 46.5039 30.123 46.8028C29.4416 47.0897 28.5571 47.2331 27.4693 47.2331C26.6445 47.2331 25.9213 47.1375 25.2997 46.9462C24.6901 46.743 24.1701 46.486 23.7398 46.1752C23.3095 45.8525 22.9628 45.5058 22.6999 45.1353C22.4488 44.7647 22.2695 44.4061 22.1619 44.0594C22.0663 43.7008 22.0364 43.396 22.0723 43.145ZM41.8977 35.3812H53.0503V37.1384H41.8977V35.3812ZM46.4699 36.9232H48.496V47H46.4699V36.9232ZM65.5155 42.0513V45.2428H73.6737V47H63.4714V35.3812H73.6558V37.1384H65.5155V40.3658H72.1855V42.0513H65.5155ZM83.769 35.3812H94.9216V37.1384H83.769V35.3812ZM88.3412 36.9232H90.3673V47H88.3412V36.9232ZM105.683 35.3812H107.727V47H105.683V35.3812ZM131.801 42.9298C131.681 43.8263 131.365 44.5973 130.851 45.2428C130.337 45.8764 129.649 46.3665 128.789 46.7131C127.94 47.0478 126.948 47.2152 125.812 47.2152C124.832 47.2152 123.93 47.0837 123.105 46.8207C122.292 46.5577 121.581 46.1752 120.971 45.6732C120.373 45.1592 119.907 44.5316 119.573 43.7905C119.25 43.0374 119.088 42.1768 119.088 41.2085C119.088 40.2283 119.25 39.3677 119.573 38.6266C119.907 37.8855 120.373 37.2579 120.971 36.7439C121.581 36.2179 122.292 35.8235 123.105 35.5605C123.93 35.2975 124.832 35.166 125.812 35.166C126.96 35.166 127.958 35.3394 128.807 35.686C129.667 36.0327 130.355 36.5287 130.869 37.1742C131.383 37.8197 131.693 38.5967 131.801 39.5052H129.829C129.661 38.9672 129.398 38.513 129.04 38.1425C128.681 37.7599 128.227 37.4671 127.677 37.2639C127.139 37.0607 126.517 36.9591 125.812 36.9591C124.928 36.9591 124.133 37.1264 123.428 37.4611C122.722 37.7839 122.166 38.262 121.76 38.8955C121.366 39.5171 121.168 40.2881 121.168 41.2085C121.168 42.117 121.366 42.888 121.76 43.5215C122.166 44.1431 122.722 44.6153 123.428 44.938C124.133 45.2608 124.928 45.4221 125.812 45.4221C126.517 45.4221 127.139 45.3265 127.677 45.1353C128.215 44.932 128.663 44.6452 129.022 44.2746C129.38 43.8921 129.643 43.4438 129.811 42.9298H131.801ZM143.96 44.2746V42.5354H150.881V44.2746H143.96ZM141.27 47L146.345 35.3812H148.532L153.642 47H151.437L146.99 36.5108H147.887L143.458 47H141.27Z" fill="#525252"/>
<path d="M216.998 44.2746V42.5354H223.919V44.2746H216.998ZM214.308 47L219.382 35.3812H221.57L226.68 47H224.475L220.028 36.5108H220.924L216.496 47H214.308ZM247.848 44.8842L247.238 45.1173V35.3812H249.264V47H247.238L238.524 37.5508L239.152 37.3177V47H237.108V35.3812H239.152L247.848 44.8842ZM266.8 47.2152C265.808 47.2152 264.911 47.0837 264.11 46.8207C263.309 46.5577 262.622 46.1752 262.048 45.6732C261.487 45.1592 261.05 44.5316 260.739 43.7905C260.441 43.0494 260.291 42.2126 260.291 41.2803C260.291 40.3359 260.453 39.4872 260.775 38.7342C261.098 37.9811 261.558 37.3416 262.156 36.8156C262.754 36.2777 263.465 35.8713 264.29 35.5964C265.114 35.3095 266.023 35.166 267.015 35.166C268.175 35.166 269.179 35.3453 270.027 35.7039C270.876 36.0625 271.551 36.5646 272.053 37.2101C272.555 37.8436 272.842 38.5967 272.914 39.4693H271.031C270.876 38.9553 270.619 38.513 270.26 38.1425C269.914 37.7719 269.466 37.485 268.916 37.2818C268.378 37.0666 267.744 36.9591 267.015 36.9591C266.059 36.9591 265.228 37.1443 264.523 37.5149C263.829 37.8735 263.298 38.3815 262.927 39.039C262.556 39.6845 262.371 40.4316 262.371 41.2803C262.371 42.1289 262.532 42.8641 262.855 43.4857C263.19 44.0953 263.692 44.5734 264.361 44.9201C265.031 45.2548 265.862 45.4221 266.854 45.4221C267.619 45.4221 268.288 45.3086 268.862 45.0815C269.448 44.8424 269.932 44.5137 270.314 44.0953C270.697 43.6769 270.966 43.1928 271.121 42.6429L272.036 42.4278C271.868 43.9698 271.318 45.1532 270.386 45.978C269.466 46.8028 268.27 47.2152 266.8 47.2152ZM271.551 47C271.551 46.6175 271.569 46.1872 271.605 45.709C271.641 45.2189 271.683 44.7229 271.731 44.2208C271.79 43.7068 271.844 43.2466 271.892 42.8402H267.087V41.3699H273.362V47H271.551ZM286.609 42.0513V45.2428H294.767V47H284.565V35.3812H294.749V37.1384H286.609V40.3658H293.279V42.0513H286.609ZM307.982 35.3812V45.2428H315.226V47H305.938V35.3812H307.982ZM325.122 43.145H327.112C327.16 43.5873 327.334 43.9877 327.632 44.3463C327.943 44.693 328.35 44.9679 328.852 45.1711C329.366 45.3624 329.951 45.458 330.609 45.458C331.195 45.458 331.679 45.3863 332.061 45.2428C332.444 45.0994 332.725 44.9022 332.904 44.6511C333.095 44.3882 333.191 44.0833 333.191 43.7367C333.191 43.39 333.077 43.1211 332.85 42.9298C332.635 42.7266 332.3 42.5593 331.846 42.4278C331.392 42.2843 330.812 42.1469 330.107 42.0154C329.521 41.9078 328.953 41.7644 328.403 41.5851C327.854 41.4058 327.358 41.1786 326.915 40.9037C326.485 40.6288 326.144 40.2941 325.893 39.8996C325.642 39.4932 325.517 39.0151 325.517 38.4652C325.517 37.8436 325.69 37.2818 326.037 36.7798C326.395 36.2777 326.921 35.8832 327.615 35.5964C328.308 35.3095 329.151 35.166 330.143 35.166C331.661 35.166 332.82 35.5187 333.621 36.2239C334.422 36.9172 334.811 37.8615 334.787 39.0569H332.832C332.796 38.3038 332.521 37.7599 332.007 37.4252C331.493 37.0905 330.842 36.9232 330.053 36.9232C329.348 36.9232 328.756 37.0487 328.278 37.2997C327.8 37.5508 327.561 37.9572 327.561 38.519C327.561 38.7581 327.615 38.9672 327.722 39.1466C327.842 39.3139 328.033 39.4693 328.296 39.6127C328.559 39.7442 328.917 39.8757 329.372 40.0072C329.838 40.1267 330.406 40.2582 331.075 40.4017C331.649 40.4973 332.187 40.6288 332.689 40.7961C333.191 40.9635 333.627 41.1727 333.998 41.4237C334.38 41.6747 334.679 41.9975 334.894 42.3919C335.109 42.7864 335.217 43.2705 335.217 43.8443C335.217 44.5017 335.05 45.0874 334.715 45.6014C334.38 46.1035 333.866 46.5039 333.173 46.8028C332.492 47.0897 331.607 47.2331 330.519 47.2331C329.694 47.2331 328.971 47.1375 328.35 46.9462C327.74 46.743 327.22 46.486 326.79 46.1752C326.359 45.8525 326.013 45.5058 325.75 45.1353C325.499 44.7647 325.319 44.4061 325.212 44.0594C325.116 43.7008 325.086 43.396 325.122 43.145Z" fill="#C8A180"/>
<path fill-rule="evenodd" clip-rule="evenodd" d="M197.145 10.946C192.321 11.4413 193.682 15.3954 188.529 19.6391C185.314 22.2761 183.087 23.6342 180.614 25.5718C175.008 29.9802 171.833 35.0058 171.957 42.4213C173.276 30.4739 182.923 24.8709 186.88 21.9454C181.15 26.971 178.512 31.1322 176.822 34.5526C173.235 41.8019 173.07 47.1583 180.285 52.4721C183.253 54.6153 187.375 57.2096 188.076 63.1833C186.303 60.1347 182.304 56.7569 179.007 55.8089C185.809 61.0417 188.983 65.0368 187.952 72C185.684 62.4429 174.472 59.5179 169.236 51.3185C156.993 30.6795 180.16 26.971 186.838 17.0433C179.748 24.0475 169.731 25.7774 164.949 36.1169C167.669 25.5718 171.709 22.3586 174.842 20.0098C180.325 16.0132 186.096 14.6945 188.734 7.19803C184.365 14.655 180.202 14.9842 173.935 19.1849C168.947 22.5232 164.165 27.6724 162.929 39.3301C157.612 28.2067 163.672 12.6349 171.627 5.67321C179.872 -1.53664 190.095 -2.9784 198.546 7.89738C209.595 14.4063 213.552 29.1552 198.794 47.611C209.43 32.6976 207.038 19.5566 200.772 14.2412C208.152 24.9524 203.494 35.0463 199.165 43.9861C196.485 49.5055 197.269 50.7417 199.619 56.3452C195.372 52.6367 196.526 49.2174 191.992 45.5104C188.9 43.0381 185.066 41.5138 182.469 38.7123C181.067 37.1464 180.614 35.458 182.469 31.2963C183.458 29.1962 184.53 28.8255 185.725 29.6074C186.838 30.3909 190.549 33.6861 191.044 30.8846C191.168 30.1012 191.003 29.6484 191.867 29.2783C192.445 29.0311 193.022 29.1547 192.857 28.3302C192.774 27.9185 192.898 27.7539 193.393 27.6719C193.97 27.5483 193.929 27.3427 193.846 26.6829C193.599 25.076 194.876 25.2821 195.66 25.035C196.402 24.7879 196.402 24.2121 196.196 23.5517C196.072 23.1815 195.99 22.8108 195.867 22.4406C195.495 21.1219 195.454 20.2565 195.619 19.351L197.061 19.1849L195.784 18.6911C196.897 15.9717 197.721 14.737 197.145 10.9465L197.145 10.946ZM200.484 20.2565C201.226 23.5517 200.937 27.0136 200.113 30.1858C198.67 35.6642 196.32 37.5176 195.207 44.1922C195.537 37.1469 197.681 34.8407 199.123 29.8135C199.907 27.0956 200.401 23.9649 200.484 20.2565ZM178.512 3.11884C168.371 7.85585 162.847 19.2669 162.682 30.2678C164.785 19.5156 168.206 10.2872 178.512 3.11884Z" fill="#CDA582"/>
</svg>
